<?xml version="1.0" standalone="no"?>
<!DOCTYPE svg PUBLIC "-//W3C//DTD SVG 1.1//EN" "http://www.w3.org/Graphics/SVG/1.1/DTD/svg11.dtd" >
<svg xmlns="http://www.w3.org/2000/svg">
<metadata></metadata>
<defs>
<font id="absolut_pro_reducedregular" horiz-adv-x="1071" >
<font-face units-per-em="2048" ascent="1638" descent="-410" />
<missing-glyph horiz-adv-x="479" />
<glyph horiz-adv-x="2048" />
<glyph horiz-adv-x="2048" />
<glyph unicode="&#xd;" horiz-adv-x="2048" />
<glyph unicode=" "  horiz-adv-x="479" />
<glyph unicode="&#x09;" horiz-adv-x="479" />
<glyph unicode="&#xa0;" horiz-adv-x="479" />
<glyph unicode="A" horiz-adv-x="1280" d="M-55 0q50 292 112.5 559t116.5 439.5t100.5 303t73.5 188.5l27 58q37 4 100 4l92 -4q10 -23 28.5 -67.5t72.5 -195.5t104 -318t112.5 -430t110.5 -537q-40 -4 -55 -4q-42 0 -92 4q-24 152 -94 477h-574q-62 -288 -92 -477q-51 -4 -88 -4q-19 0 -55 4zM211 602h510 q-42 194 -104 401t-103 317l-41 110h-10q-17 -44 -45.5 -121t-95.5 -295t-111 -412z" />
<glyph unicode="B" horiz-adv-x="1232" d="M0 0v1548h436q105 0 180.5 -18.5t135.5 -62t90 -123.5t30 -197q0 -78 -20 -140.5t-45 -97t-59 -59.5t-50 -32t-30 -11q55 -22 87 -46q146 -109 146 -331q0 -430 -442 -430h-459zM145 127h304q76 0 129.5 13.5t94 47t60 94t19.5 150.5q0 169 -82 237t-262 68h-263v-610z M145 866h240q74 0 125.5 7t95 25t69 49.5t39 80.5t13.5 119q0 83 -19 136.5t-60 81.5t-92.5 38t-129.5 10h-281v-547z" />
<glyph unicode="C" horiz-adv-x="1130" d="M-61 778q0 407 137.5 592.5t443.5 185.5q70 0 134 -9.5t105 -23.5t72.5 -28t45.5 -23l14 -10q-48 -74 -98 -100q-9 7 -27 17t-88 27t-158 17q-147 0 -238.5 -60.5t-138.5 -203.5t-47 -381q0 -346 103.5 -504.5t320.5 -158.5q88 0 156.5 18.5t92.5 36.5l24 18 q41 -22 69 -48.5t36 -41.5l7 -16q-5 -4 -15.5 -11t-47 -24t-77.5 -30t-107.5 -24t-137.5 -11q-303 0 -442 195.5t-139 600.5z" />
<glyph unicode="D" horiz-adv-x="1349" d="M0 0v1548h330q149 0 272 -41t207 -111t141.5 -166t84 -204t26.5 -227t-22.5 -229t-76.5 -215.5t-135.5 -183t-209 -124.5t-287.5 -47h-330zM145 127h162q134 0 239.5 38.5t171.5 102.5t109 152.5t60.5 181.5t17.5 197q0 132 -38.5 243t-112 194t-188 130t-259.5 47h-162 v-1286z" />
<glyph unicode="E" horiz-adv-x="1091" d="M0 0v1548h776q4 -36 4 -63q0 -44 -4 -72h-631v-547h547q4 -25 4 -65q0 -28 -4 -64h-547v-610h631q4 -25 4 -61q0 -34 -4 -66h-776z" />
<glyph unicode="F" horiz-adv-x="1021" d="M0 0v1548h772q4 -27 4 -67q0 -36 -4 -68h-627v-547h543q4 -25 4 -59t-4 -70h-543v-737q-50 -4 -71 -4q-38 0 -74 4z" />
<glyph unicode="G" horiz-adv-x="1372" d="M-61 778q0 778 612 778q93 0 175.5 -12t133.5 -29t88.5 -34t53.5 -29l16 -12q-24 -42 -49 -70t-38 -36l-13 -7q-4 4 -12.5 11t-40 24t-70 30t-104.5 24t-140 11q-461 0 -461 -649q0 -256 45 -399.5t141 -204.5t265 -61q103 0 183 4t109 8l29 4v608h-258q-4 33 -4 64 q0 29 4 65h404v-852q-242 -26 -467 -26q-170 0 -283.5 42t-185.5 138t-102.5 243t-30.5 367z" />
<glyph unicode="H" horiz-adv-x="1368" d="M0 0v1548q46 4 68 4q37 0 77 -4v-682h703v682q27 4 74 4q35 0 71 -4v-1548q-46 -4 -71 -4q-47 0 -74 4v737h-703v-737q-29 -4 -67 -4q-42 0 -78 4z" />
<glyph unicode="I" horiz-adv-x="526" d="M0 0v1548q46 4 74 4q38 0 78 -4v-1548q-27 -4 -70 -4q-46 0 -82 4z" />
<glyph unicode="J" horiz-adv-x="600" d="M-150 121q5 0 14 1.5t34 8.5t48 17t51.5 30.5t48.5 46.5t34 67.5t14 90.5v1165q50 4 72 4q44 0 80 -4v-1171q0 -77 -19.5 -140t-50 -103t-68 -70t-75 -44.5t-68 -23.5t-49.5 -10l-20 -2q-20 28 -31.5 62t-12.5 54z" />
<glyph unicode="K" horiz-adv-x="1228" d="M0 0v1548q46 4 70 4q39 0 75 -4v-704h11l665 710q53 0 98.5 -5.5t64.5 -10.5l20 -6l-693 -721l680 -786q-88 -27 -172 -31l-661 772h-13v-766q-27 -4 -67 -4q-42 0 -78 4z" />
<glyph unicode="L" horiz-adv-x="937" d="M0 0v1548q29 4 72 4q40 0 80 -4v-1421h557q4 -25 4 -61q0 -34 -4 -66h-709z" />
<glyph unicode="M" horiz-adv-x="1665" d="M0 0v1548q45 2 127 2l127 -2l278 -510q45 -83 72.5 -138t31.5 -69l5 -14h8q7 33 109 221l278 510q41 2 121 2l133 -2v-1548q-36 -4 -76 -4q-23 0 -69 4v1034q0 163 1 269t2 131l1 24h-10q-17 -52 -226 -422l-260 -463h-16l-260 463q-91 163 -147.5 268.5t-67.5 129.5 l-10 24h-11q4 -54 4 -424v-1034q-46 -4 -69 -4q-40 0 -76 4z" />
<glyph unicode="N" horiz-adv-x="1458" d="M0 0v1548q47 4 127 4q91 0 131 -4l494 -1050l178 -400h10l-2 1450q40 4 70 4q39 0 75 -4v-1548q-71 -6 -125 -6q-62 0 -137 6l-485 1036q-80 170 -125.5 273t-50.5 121l-6 18h-11l2 -1448q-40 -4 -71 -4q-42 0 -74 4z" />
<glyph unicode="O" horiz-adv-x="1370" d="M-61 799q0 208 28.5 347.5t96 233t176 135t270.5 41.5q305 0 438 -176t133 -581q0 -158 -18 -282t-59.5 -226t-107.5 -169t-162.5 -103.5t-223.5 -36.5q-151 0 -261 55t-178 162t-100 255.5t-32 344.5zM96 799q0 -686 414 -686q225 0 320.5 170.5t95.5 515.5 q0 180 -24 301t-76.5 193.5t-128 103t-187.5 30.5q-159 0 -247 -57.5t-127.5 -192t-39.5 -378.5z" />
<glyph unicode="P" horiz-adv-x="1189" d="M0 0v1548h532q94 0 179 -67t137.5 -185t52.5 -256q0 -129 -52.5 -244.5t-138 -184t-178.5 -68.5h-387v-543q-46 -4 -63 -4q-42 0 -82 4zM145 670h347q106 0 181 109.5t75 260.5q0 159 -74 266t-182 107h-347v-743z" />
<glyph unicode="Q" horiz-adv-x="1386" d="M-61 799q0 167 17 287t55.5 212.5t104 147.5t159 82.5t223.5 27.5q299 0 419.5 -173t120.5 -584q0 -168 -2.5 -336t-5.5 -252l-2 -84h256q6 -25 6 -57q0 -28 -6 -70h-766q-305 0 -442 191t-137 608zM96 799q0 -672 422 -672h361v672q0 184 -18 301.5t-63.5 192 t-116.5 104.5t-183 30q-119 0 -194.5 -29.5t-123 -104.5t-66 -192t-18.5 -302z" />
<glyph unicode="R" horiz-adv-x="1251" d="M0 0v1548h512q76 0 152.5 -43.5t132 -108.5t90.5 -141t35 -139q0 -95 -80.5 -215t-204.5 -186q147 -363 326 -697q-88 -26 -158 -28q-185 355 -316 700h-344v-690q-50 -4 -65 -4q-44 0 -80 4zM145 819h347q62 0 127.5 50t106 120t40.5 127q0 63 -40.5 132.5t-105.5 117 t-128 47.5h-347v-594z" />
<glyph unicode="S" horiz-adv-x="1216" d="M-41 137q6 8 16.5 21t42 41t60.5 43q5 -5 13.5 -14t39 -31t64 -39t87.5 -31t111 -14q183 0 270 75.5t87 225.5q0 53 -11 96t-28 72.5t-47 52.5t-56.5 36.5t-70 25t-74.5 17.5t-81 14q-5 1 -7 1q-48 8 -84.5 16.5t-81 24t-76.5 35t-65 50.5t-53 69.5t-33 92.5t-13 120 q0 212 124.5 315.5t342.5 103.5q72 0 141 -14.5t116 -35t84 -40.5t55 -34l18 -15q-19 -45 -109 -108q-5 5 -14 12.5t-40 27.5t-64.5 35.5t-84 28t-102.5 12.5q-166 0 -238.5 -66.5t-72.5 -211.5q0 -68 21.5 -118.5t45.5 -77.5t82.5 -49t89 -28.5t109.5 -19.5q7 -1 10 -2 q49 -8 86.5 -16t84 -24t80 -36.5t67.5 -53.5t55.5 -75t35 -101.5t13.5 -131.5q0 -432 -512 -432q-81 0 -156 16t-123.5 38.5t-85 45.5t-52.5 39z" />
<glyph unicode="T" horiz-adv-x="1015" d="M-207 1477q0 35 4 71h1012q4 -27 4 -71q0 -36 -4 -64h-430v-1413q-27 -4 -76 -4q-40 0 -76 4v1413h-430q-4 31 -4 64z" />
<glyph unicode="U" horiz-adv-x="1374" d="M0 530v1018q46 4 68 4q41 0 77 -4v-1048q0 -97 17.5 -166t58.5 -120t112.5 -76t176.5 -25t176 25t112 76t58.5 120t17.5 166v1048q46 4 66 4q44 0 80 -4v-1016q0 -137 -25.5 -235.5t-84 -171t-158 -108t-242.5 -35.5q-145 0 -244.5 35.5t-157.5 107.5t-83 170t-25 235z " />
<glyph unicode="V" horiz-adv-x="1300" d="M-82 1532q76 23 148 29q34 -217 88 -446t106.5 -401t100.5 -313t78 -215l30 -75h8q12 28 31.5 78.5t75 210t104.5 321.5t105 394t90 446q73 -4 139 -27q-46 -276 -109.5 -535.5t-122 -432.5t-110 -307t-82.5 -197l-31 -62q-45 -6 -94 -6q-38 0 -98 6q-12 23 -32.5 67 t-80 194.5t-113.5 316t-119.5 425t-111.5 529.5z" />
<glyph unicode="W" horiz-adv-x="1945" d="M-123 1532q78 23 152 29l297 -1473h10l328 1456q37 4 112 4q62 0 131 -6l330 -1454h8l299 1473q50 -3 89 -8.5t53 -10.5l14 -4l-334 -1538q-37 -4 -137 -4q-80 0 -121 4l-322 1442h-10l-315 -1442q-37 -4 -139 -4q-80 0 -125 4z" />
<glyph unicode="X" horiz-adv-x="1284" d="M-123 8l494 778l-447 744q86 23 154 29l379 -656q7 13 387 656q51 -1 93.5 -6t59.5 -10l17 -5l-469 -752l471 -770q-86 -20 -152 -26l-407 680q-58 -99 -200 -333t-208 -347q-51 1 -94 5.5t-61 8.5z" />
<glyph unicode="Y" horiz-adv-x="1175" d="M-123 1532q78 23 150 29q31 -143 81 -289t100 -252.5t95.5 -192t74.5 -129.5l28 -43h12q11 16 30.5 46.5t73.5 127t101 196.5t100 247.5t84 288.5q58 -4 143 -27q-35 -162 -96 -326.5t-123.5 -284t-120 -215.5t-93.5 -145l-36 -49v-514q-53 -4 -78 -4q-44 0 -73 4v518 q-13 18 -36 52t-86 142.5t-118 221t-116 277t-97 321.5z" />
<glyph unicode="Z" horiz-adv-x="1122" d="M-70 63q0 37 9 80l741 1270h-703q-4 25 -4 64q0 43 4 71h863q4 -25 4 -63q0 -54 -6 -90l-746 -1268h778q7 -29 7 -61q0 -38 -7 -66h-936q-4 32 -4 63z" />
<glyph unicode="a" horiz-adv-x="1026" d="M-41 268q0 144 87.5 224t268.5 83l240 5v151q0 95 -50.5 139.5t-152.5 44.5q-182 0 -250 -65q-59 39 -92 92q53 44 150.5 70t191.5 26q174 0 258 -75.5t84 -241.5v-715q-232 -20 -422 -20q-166 0 -239.5 70t-73.5 212zM94 268q0 -166 189 -166q68 0 136 4t102 8l34 3v348 l-240 -4q-70 -1 -116 -16.5t-68 -44t-29.5 -59t-7.5 -73.5z" />
<glyph unicode="b" horiz-adv-x="1050" d="M0 6v1542q40 4 63 4q44 0 76 -4v-528q109 16 207 16q150 0 243.5 -47.5t143 -160t49.5 -298.5q0 -120 -28.5 -218t-85.5 -171t-150 -113t-215 -40q-81 0 -156.5 4.5t-110.5 9.5zM139 121q53 -12 164 -12q78 0 136.5 22t95.5 59.5t59.5 93t31.5 114.5t9 132q0 214 -63 301 t-226 87q-49 0 -101 -5t-79 -9l-27 -5v-778z" />
<glyph unicode="c" horiz-adv-x="776" d="M-61 500q0 100 10 177t35.5 146.5t68 114t109.5 70.5t157 26q50 0 102.5 -2t79.5 -4l27 -2q2 -20 2 -59q0 -50 -2 -66q-125 8 -209 8q-62 0 -105.5 -21.5t-68 -54.5t-38 -89.5t-17.5 -110.5t-4 -133q0 -214 55 -300.5t199 -86.5q75 0 186 6q4 -40 4 -56q0 -49 -2 -63 q-108 -10 -188 -10q-204 0 -302.5 122.5t-98.5 387.5z" />
<glyph unicode="d" d="M-61 530q0 226 121 366t333 140q44 0 96 -3.5t81 -6.5l30 -4v526q29 4 68 4t71 -4v-1542q-196 -18 -366 -18q-220 0 -327 131t-107 411zM86 530q0 -216 65 -320t222 -104q50 0 107 3t88 5l32 3v782q-88 19 -207 19q-78 0 -138 -30.5t-96.5 -84.5t-54.5 -123t-18 -150z " />
<glyph unicode="e" horiz-adv-x="1032" d="M-61 520q0 261 113 388.5t321 127.5q195 0 295 -105.5t106 -336.5l2 -96h-696q0 -186 87.5 -287.5t248.5 -101.5q99 0 174 18.5t115 40.5q16 -24 24 -54t8 -48v-19q-11 -6 -33.5 -15.5t-105.5 -25.5t-182 -16q-477 0 -477 530zM82 610h547v10q-1 148 -57 222 q-58 76 -199 76q-143 0 -217 -80.5t-74 -227.5z" />
<glyph unicode="f" horiz-adv-x="622" d="M0 0v1245q0 99 56 171t140 105t183 33l43 -2q4 -36 4 -63q0 -19 -4 -55h-43q-107 0 -173.5 -53t-66.5 -128v-225h287q4 -40 4 -59q0 -34 -4 -62h-287v-907q-40 -4 -71 -4q-22 0 -68 4z" />
<glyph unicode="g" d="M-61 535q0 226 120.5 363.5t333.5 137.5q71 0 157.5 -4.5t137.5 -9.5l51 -4v-1045q0 -241 -106.5 -348.5t-315.5 -107.5q-70 0 -128.5 11t-96.5 29.5t-58.5 32.5t-35.5 29q41 65 90 102q3 -4 8.5 -10t26.5 -21.5t45 -27.5t64.5 -21.5t84.5 -9.5q144 0 213.5 87t69.5 296 q-129 -18 -227 -18q-221 0 -327.5 129.5t-106.5 409.5zM86 535q0 -215 65 -317.5t222 -102.5q50 0 107 2.5t88 4.5l32 3v780q-88 13 -207 13q-153 0 -230 -107t-77 -276z" />
<glyph unicode="h" horiz-adv-x="1064" d="M0 0v1548q40 4 63 4q44 0 76 -4v-526q137 14 203 14q119 0 196.5 -25t122.5 -81.5t62.5 -136.5t17.5 -203v-590q-50 -4 -73 -4q-22 0 -68 4v610q0 164 -55 236t-203 72q-34 0 -84.5 -5t-84.5 -9l-34 -5v-899q-27 -4 -65 -4q-42 0 -74 4z" />
<glyph unicode="i" horiz-adv-x="479" d="M-12 1337l2 74q29 2 80 2l82 -2q2 -23 2 -70l-2 -75q-27 -2 -78 -2l-84 2q-2 25 -2 71zM2 0v1028q23 2 66 2q61 0 79 -2v-1028q-48 -2 -79 -2q-43 0 -66 2z" />
<glyph unicode="j" horiz-adv-x="518" d="M-166 -414q0 18 4 58q78 6 135.5 51.5t57.5 111.5v1221q40 4 63 4q44 0 76 -4v-1194q0 -141 -94.5 -222t-237.5 -87q-4 28 -4 61zM18 1337l2 74q29 2 80 2l82 -2q2 -23 2 -70l-2 -75q-27 -2 -78 -2l-84 2q-2 25 -2 71z" />
<glyph unicode="k" horiz-adv-x="950" d="M0 0v1548q40 4 63 4q44 0 76 -4l-4 -952h10l439 438q53 -1 95 -7.5t57 -12.5l16 -6l-465 -449q257 -305 458 -543q-89 -24 -159 -28l-441 528h-10l4 -516q-29 -4 -65 -4q-42 0 -74 4z" />
<glyph unicode="l" horiz-adv-x="477" d="M0 0v1522l141 30v-1552q-46 -4 -67 -4q-42 0 -74 4z" />
<glyph unicode="m" horiz-adv-x="1576" d="M0 0v1018l856 18h22q86 0 146 -14q68 -16 113.5 -47.5t70.5 -87.5t35 -125.5t10 -171.5v-590q-50 -4 -69 -4q-38 0 -70 4v610q0 84 -9.5 137.5t-36.5 95.5q-28 41 -80 59q-46 16 -116 16h-16l-172 -5v-913q-46 -4 -68 -4q-39 0 -71 4v909l-406 -10v-899q-29 -4 -65 -4 q-42 0 -74 4z" />
<glyph unicode="n" horiz-adv-x="1062" d="M0 0v1018l322 16q26 1 49 2q93 0 159 -20q82 -24 128 -82t63.5 -139t17.5 -205v-590q-40 -4 -75 -4q-24 0 -64 4v610q0 84 -11.5 139t-41.5 96q-29 41 -85 57q-41 12 -97 13q-20 0 -43 -2l-183 -12v-901q-27 -4 -65 -4q-42 0 -74 4z" />
<glyph unicode="o" horiz-adv-x="1013" d="M-61 532q0 123 19 212t64.5 157.5t126 102.5t197.5 34q94 0 164.5 -23t117 -64.5t75 -105.5t40 -139.5t11.5 -173.5q0 -546 -408 -546q-407 0 -407 546zM72 532q0 -99 14 -175t45 -135.5t85 -90.5t130 -31q275 0 275 432q0 200 -62.5 295t-212.5 95t-212 -95t-62 -295z " />
<glyph unicode="p" horiz-adv-x="1050" d="M0 -461v1479q180 18 346 18q150 0 243.5 -47.5t143 -160t49.5 -298.5q0 -120 -28 -217t-83 -168t-143 -110t-202 -39q-51 0 -98 4t-68 8l-21 4v-473q-48 -4 -73 -4q-26 0 -66 4zM139 129q74 -12 187 -12q89 0 151 31.5t95.5 90t48 129.5t14.5 162q0 214 -63 301t-226 87 q-62 0 -113.5 -4t-72.5 -8l-21 -3v-774z" />
<glyph unicode="q" d="M-61 530q0 226 121 366t333 140q71 0 157.5 -4.5t137.5 -9.5l51 -4v-1479q-48 -4 -71 -4q-22 0 -68 4v475q-129 -18 -227 -18q-221 0 -327.5 127.5t-106.5 406.5zM86 530q0 -215 64.5 -315t222.5 -100q50 0 107 2.5t88 4.5l32 3v780q-88 13 -207 13q-78 0 -138 -30.5 t-96.5 -84.5t-54.5 -123t-18 -150z" />
<glyph unicode="r" horiz-adv-x="667" d="M0 0v1024q158 12 291 12q44 0 86 -1.5t62 -2.5l20 -2q6 -34 6 -63q0 -28 -4 -56q-71 7 -139 7q-45 0 -91 -3t-69 -7l-23 -3v-905q-29 -4 -67 -4q-40 0 -72 4z" />
<glyph unicode="s" horiz-adv-x="929" d="M-41 84q3 7 10 17.5t31 33.5t51 35q11 -8 30 -20t73 -32t102 -20q139 0 196.5 44t57.5 132q0 45 -14.5 78.5t-36 53.5t-60.5 35t-74.5 22.5t-91.5 15.5q-128 16 -196 75.5t-68 188.5q0 163 80 229t250 66q83 0 155.5 -21t103.5 -42l32 -21q-4 -7 -11 -18t-31.5 -34.5 t-51.5 -35.5q-10 6 -27 16t-69 26t-101 16q-98 0 -148.5 -42.5t-50.5 -115.5q0 -43 12 -74t32.5 -51t55.5 -33.5t73 -20.5t94 -12q117 -11 195.5 -82.5t78.5 -195.5q0 -168 -92.5 -239.5t-292.5 -71.5q-54 0 -104.5 10t-84 24.5t-59 29t-37.5 24.5z" />
<glyph unicode="t" horiz-adv-x="636" d="M0 0v1286q29 6 75 16.5t64 14.5v-289h289q4 -32 4 -63q0 -33 -4 -58h-289v-907q-48 -4 -73 -4q-30 0 -66 4z" />
<glyph unicode="u" horiz-adv-x="1036" d="M0 315v713q29 4 68 4t71 -4v-733q0 -116 48.5 -154.5t172.5 -38.5t173 38.5t49 154.5v733q40 4 63 4q44 0 76 -4v-711q0 -86 -14.5 -145t-41 -95.5t-73 -56.5t-99.5 -27t-133 -7t-133.5 7t-100 27t-72 56.5t-40 95t-14.5 143.5z" />
<glyph unicode="v" horiz-adv-x="985" d="M-102 999q36 21 70 31.5t50 11.5h17l155 -450q58 -168 94 -281t43 -143l7 -29h10q12 79 139 447l156 448q48 -2 84 -9.5t47 -14.5l12 -6l-366 -1004q-51 -4 -86 -4q-49 0 -78 4z" />
<glyph unicode="w" horiz-adv-x="1624" d="M-102 1001q27 14 61.5 22.5t54.5 10.5l21 2l133 -448q48 -167 77.5 -282t34.5 -147l5 -32h10q6 74 133 440l160 461q23 4 63 4t68 -4l162 -446q60 -167 95.5 -280.5t40.5 -143.5l5 -31h10q21 114 119 461l129 448q37 -2 72.5 -10t51.5 -15l17 -7l-313 -1004 q-55 -4 -90 -4q-45 0 -72 4l-155 442q-57 163 -90 266.5t-37 125.5l-5 22h-10q-6 -62 -137 -432l-150 -424q-46 -4 -81 -4q-51 0 -82 4z" />
<glyph unicode="x" horiz-adv-x="1030" d="M-86 25l362 499l-339 482q29 15 64.5 23t56.5 9h20l282 -432l285 432q41 -1 81 -7.5t60 -12.5l19 -6l-363 -488l363 -499q-42 -21 -81 -31q-35 -9 -53 -8h-4h-18l-289 442l-297 -436q-75 4 -149 33z" />
<glyph unicode="y" horiz-adv-x="1050" d="M-2 -381q41 65 90 102q3 -4 8.5 -10t26.5 -21.5t45 -27.5t64.5 -21.5t84.5 -9.5q95 0 151 33.5t84 116.5t28 229q-77 -14 -183 -14q-99 0 -167.5 15.5t-114 46t-70.5 84t-35 120.5t-10 166v600q46 4 66 4q41 0 73 -4v-622q0 -68 5 -110.5t20 -80.5t43.5 -58t74.5 -31 t115 -11q37 0 83 2.5t73 4.5l27 3v903q29 4 65 4q42 0 74 -4v-1055q0 -244 -98 -350t-304 -106q-70 0 -128.5 11t-96.5 29.5t-58.5 32.5t-35.5 29z" />
<glyph unicode="z" horiz-adv-x="931" d="M-43 63q0 41 6 70l492 766v8h-473q-5 44 -5 62q0 28 5 59h634q5 -31 5 -59q0 -53 -7 -74l-491 -766v-8h516q4 -25 4 -62q0 -31 -4 -59h-678q-4 43 -4 63z" />
<glyph unicode="&#x2000;" horiz-adv-x="780" />
<glyph unicode="&#x2001;" horiz-adv-x="1561" />
<glyph unicode="&#x2002;" horiz-adv-x="780" />
<glyph unicode="&#x2003;" horiz-adv-x="1561" />
<glyph unicode="&#x2004;" horiz-adv-x="520" />
<glyph unicode="&#x2005;" horiz-adv-x="390" />
<glyph unicode="&#x2006;" horiz-adv-x="260" />
<glyph unicode="&#x2007;" horiz-adv-x="260" />
<glyph unicode="&#x2008;" horiz-adv-x="195" />
<glyph unicode="&#x2009;" horiz-adv-x="312" />
<glyph unicode="&#x200a;" horiz-adv-x="86" />
<glyph unicode="&#x202f;" horiz-adv-x="312" />
<glyph unicode="&#x205f;" horiz-adv-x="390" />
<glyph unicode="&#x25fc;" horiz-adv-x="1034" d="M0 0v1034h1034v-1034h-1034z" />
</font>
</defs>
</svg>
